<svg xmlns="http://www.w3.org/2000/svg" viewBox="0 0 920 420" width="920" height="420" font-family="Arial, sans-serif">
  <rect width="920" height="420" fill="#F8FAFC" rx="10"/>

  <!-- header -->
  <text x="460" y="26" text-anchor="middle" font-size="9" font-weight="700" fill="#1E40AF" letter-spacing="1.2">IaC &amp; CODE SECURITY — SHIFT-LEFT SCANNING PIPELINE</text>
  <line x1="16" y1="34" x2="904" y2="34" stroke="#CBD5E1" stroke-width="1"/>

  <!-- ── SHIFT-LEFT PIPELINE: 5 stages ── -->
  <!-- Stage labels row -->
  <rect x="16"  y="42" width="160" height="192" fill="#FFFFFF" stroke="#CBD5E1" stroke-width="1.5" rx="10"/>
  <rect x="188" y="42" width="160" height="192" fill="#FFFFFF" stroke="#CBD5E1" stroke-width="1.5" rx="10"/>
  <rect x="360" y="42" width="160" height="192" fill="#FFFFFF" stroke="#CBD5E1" stroke-width="2.5" rx="10"/>
  <rect x="532" y="42" width="160" height="192" fill="#FFFFFF" stroke="#CBD5E1" stroke-width="1.5" rx="10"/>
  <rect x="704" y="42" width="200" height="192" fill="#FFFFFF" stroke="#CBD5E1" stroke-width="1.5" rx="10"/>

  <!-- stage titles -->
  <text x="96"  y="66" text-anchor="middle" font-size="9" font-weight="700" fill="#059669" letter-spacing="1">DEVELOPMENT</text>
  <text x="268" y="66" text-anchor="middle" font-size="9" font-weight="700" fill="#1E40AF" letter-spacing="1">CODE REVIEW</text>
  <text x="440" y="66" text-anchor="middle" font-size="9" font-weight="700" fill="#1E40AF" letter-spacing="1">CI / CD PIPELINE</text>
  <text x="612" y="66" text-anchor="middle" font-size="9" font-weight="700" fill="#64748B" letter-spacing="1">STAGING</text>
  <text x="804" y="66" text-anchor="middle" font-size="9" font-weight="700" fill="#64748B" letter-spacing="1">PRODUCTION</text>

  <!-- separating lines -->
  <line x1="96"  y1="74" x2="96"  y2="74" stroke="none"/>
  <line x1="26"  y1="74" x2="166" y2="74" stroke="#94A3B8" stroke-width="1"/>
  <line x1="198" y1="74" x2="338" y2="74" stroke="#94A3B8" stroke-width="1"/>
  <line x1="370" y1="74" x2="510" y2="74" stroke="#94A3B8" stroke-width="1"/>
  <line x1="542" y1="74" x2="682" y2="74" stroke="#94A3B8" stroke-width="1"/>
  <line x1="714" y1="74" x2="894" y2="74" stroke="#94A3B8" stroke-width="1"/>

  <!-- stage icons / badges -->
  <rect x="36"  y="82" width="120" height="36" fill="#FFFFFF" rx="7" stroke="#CBD5E1" stroke-width="1"/>
  <text x="96"  y="105" text-anchor="middle" font-size="11" font-weight="700" fill="#1E3A8A">Onam IDE Plugin</text>

  <rect x="208" y="82" width="120" height="36" fill="#FFFFFF" rx="7" stroke="#CBD5E1" stroke-width="1"/>
  <text x="268" y="105" text-anchor="middle" font-size="11" font-weight="700" fill="#1E3A8A">PR Scan Gate</text>

  <rect x="380" y="82" width="120" height="36" fill="#FFFFFF" rx="7" stroke="#CBD5E1" stroke-width="1"/>
  <text x="440" y="105" text-anchor="middle" font-size="11" font-weight="700" fill="#1E3A8A">Onam CI Action</text>

  <rect x="552" y="82" width="120" height="36" fill="#FFFFFF" rx="7" stroke="#CBD5E1" stroke-width="1"/>
  <text x="612" y="105" text-anchor="middle" font-size="11" font-weight="700" fill="#1E3A8A">Staging Scan</text>

  <rect x="724" y="82" width="160" height="36" fill="#FFFFFF" rx="7" stroke="#CBD5E1" stroke-width="1"/>
  <text x="804" y="105" text-anchor="middle" font-size="11" font-weight="700" fill="#1E3A8A">Production Drift</text>

  <!-- descriptions -->
  <text x="96"  y="138" text-anchor="middle" font-size="9" fill="#64748B">SAST lint as you code</text>
  <text x="96"  y="153" text-anchor="middle" font-size="9" fill="#64748B">IaC checks inline</text>
  <text x="96"  y="168" text-anchor="middle" font-size="9" fill="#64748B">Secret detection</text>

  <text x="268" y="138" text-anchor="middle" font-size="9" fill="#1E40AF">Block PRs with</text>
  <text x="268" y="153" text-anchor="middle" font-size="9" fill="#1E40AF">CRITICAL findings</text>
  <text x="268" y="168" text-anchor="middle" font-size="9" fill="#1E40AF">before merge</text>

  <text x="440" y="138" text-anchor="middle" font-size="9" fill="#1E3A8A">14 languages · IaC</text>
  <text x="440" y="153" text-anchor="middle" font-size="9" fill="#1E3A8A">SCA · DAST payloads</text>
  <text x="440" y="168" text-anchor="middle" font-size="9" fill="#1E3A8A">SBOM generation</text>

  <text x="612" y="138" text-anchor="middle" font-size="9" fill="#64748B">Full environment</text>
  <text x="612" y="153" text-anchor="middle" font-size="9" fill="#64748B">posture check before</text>
  <text x="612" y="168" text-anchor="middle" font-size="9" fill="#64748B">production push</text>

  <text x="804" y="138" text-anchor="middle" font-size="9" fill="#64748B">Continuous drift</text>
  <text x="804" y="153" text-anchor="middle" font-size="9" fill="#64748B">detection vs. last</text>
  <text x="804" y="168" text-anchor="middle" font-size="9" fill="#64748B">approved baseline</text>

  <!-- cost escalation row -->
  <rect x="36"  y="200" width="120" height="26" fill="#FFFFFF" rx="5" stroke="#CBD5E1" stroke-width="1"/>
  <text x="96"  y="217" text-anchor="middle" font-size="9" font-weight="700" fill="#1E3A8A">~$80 to fix</text>
  <rect x="208" y="200" width="120" height="26" fill="#FFFFFF" rx="5" stroke="#CBD5E1" stroke-width="1"/>
  <text x="268" y="217" text-anchor="middle" font-size="9" font-weight="700" fill="#1E3A8A">~$240 to fix</text>
  <rect x="380" y="200" width="120" height="26" fill="#FFFFFF" rx="5" stroke="#CBD5E1" stroke-width="1"/>
  <text x="440" y="217" text-anchor="middle" font-size="9" font-weight="700" fill="#1E3A8A">~$960 to fix</text>
  <rect x="552" y="200" width="120" height="26" fill="#FFFFFF" rx="5" stroke="#CBD5E1" stroke-width="1"/>
  <text x="612" y="217" text-anchor="middle" font-size="9" font-weight="700" fill="#1E3A8A">~$7,600 to fix</text>
  <rect x="724" y="200" width="160" height="26" fill="#FFFFFF" rx="5" stroke="#CBD5E1" stroke-width="1"/>
  <text x="804" y="217" text-anchor="middle" font-size="9" font-weight="700" fill="#1E3A8A">$4M+ post-breach</text>

  <!-- arrows between stages -->
  <line x1="176" y1="137" x2="188" y2="137" stroke="#94A3B8" stroke-width="1.5"/>
  <polygon points="186,133 194,137 186,141" fill="#94A3B8"/>
  <line x1="348" y1="137" x2="360" y2="137" stroke="#94A3B8" stroke-width="1.5"/>
  <polygon points="358,133 366,137 358,141" fill="#94A3B8"/>
  <line x1="520" y1="137" x2="532" y2="137" stroke="#94A3B8" stroke-width="1.5"/>
  <polygon points="530,133 538,137 530,141" fill="#94A3B8"/>
  <line x1="692" y1="137" x2="704" y2="137" stroke="#94A3B8" stroke-width="1.5"/>
  <polygon points="702,133 710,137 702,141" fill="#94A3B8"/>

  <!-- ── BOTTOM: Language + Rule Coverage ── -->
  <rect x="16" y="250" width="888" height="154" fill="#FFFFFF" stroke="#CBD5E1" stroke-width="1.5" rx="10"/>
  <text x="24" y="268" font-size="8" font-weight="700" fill="#1E40AF" letter-spacing="1.2">SCAN COVERAGE</text>
  <line x1="16" y1="274" x2="904" y2="274" stroke="#CBD5E1" stroke-width="1"/>

  <!-- languages -->
  <text x="200" y="292" text-anchor="middle" font-size="8" font-weight="700" fill="#94A3B8" letter-spacing="1">14 LANGUAGES</text>
  <rect x="24"  y="298" width="352" height="94" fill="#FFFFFF" stroke="#CBD5E1" stroke-width="1" rx="8"/>
  <text x="30"  y="315" font-size="9" fill="#374151">Python · JavaScript · TypeScript · Java · Go</text>
  <text x="30"  y="331" font-size="9" fill="#374151">Ruby · PHP · C/C++ · C# · Scala</text>
  <text x="30"  y="347" font-size="9" fill="#374151">Terraform · CloudFormation · Kubernetes YAML · Helm</text>
  <text x="30"  y="363" font-size="9" fill="#374151">Dockerfile · Ansible · Pulumi · ARM templates</text>
  <text x="30"  y="379" font-size="9" fill="#374151">GitHub Actions · GitLab CI · Jenkins · Bitbucket Pipelines</text>

  <!-- rule coverage -->
  <text x="650" y="292" text-anchor="middle" font-size="8" font-weight="700" fill="#94A3B8" letter-spacing="1">RULE COVERAGE</text>
  <rect x="392" y="298" width="512" height="94" fill="#FFFFFF" stroke="#CBD5E1" stroke-width="1" rx="8"/>
  <rect x="402" y="308" width="136" height="34" fill="#FFFFFF" rx="6" stroke="#CBD5E1" stroke-width="1"/>
  <text x="470" y="325" text-anchor="middle" font-size="10" font-weight="700" fill="#1E3A8A">2,852 SAST rules</text>
  <text x="470" y="339" text-anchor="middle" font-size="9"  fill="#64748B">code security</text>

  <rect x="548" y="308" width="136" height="34" fill="#FFFFFF" rx="6" stroke="#CBD5E1" stroke-width="1"/>
  <text x="616" y="325" text-anchor="middle" font-size="10" font-weight="700" fill="#1E3A8A">479 DAST payloads</text>
  <text x="616" y="339" text-anchor="middle" font-size="9"  fill="#64748B">runtime testing</text>

  <rect x="694" y="308" width="200" height="34" fill="#FFFFFF" rx="6" stroke="#CBD5E1" stroke-width="1"/>
  <text x="794" y="325" text-anchor="middle" font-size="10" font-weight="700" fill="#1E3A8A">SCA + CycloneDX SBOM</text>
  <text x="794" y="339" text-anchor="middle" font-size="9"  fill="#64748B">dependency analysis</text>

  <text x="502" y="372" text-anchor="middle" font-size="9" fill="#64748B">EPSS / KEV enrichment · AI-powered fix suggestions · GitHub / GitLab / Bitbucket integration</text>
</svg>
