<svg xmlns="http://www.w3.org/2000/svg" viewBox="0 0 920 280" width="920" height="280" font-family="Arial, sans-serif">
  <rect width="920" height="280" fill="#F8FAFC" rx="10"/>
  <text x="460" y="26" text-anchor="middle" font-size="9" font-weight="700" fill="#1E40AF" letter-spacing="1.2">INCIDENT RESPONSE PROCESS — FROM DETECTION TO POST-INCIDENT REVIEW</text>
  <line x1="16" y1="34" x2="904" y2="34" stroke="#CBD5E1" stroke-width="1"/>

  <text x="100" y="58" text-anchor="middle" font-size="8" font-weight="700" fill="#64748B" letter-spacing="1">1. DETECT</text>
  <text x="290" y="58" text-anchor="middle" font-size="8" font-weight="700" fill="#64748B" letter-spacing="1">2. TRIAGE</text>
  <text x="480" y="58" text-anchor="middle" font-size="8" font-weight="700" fill="#64748B" letter-spacing="1">3. RESPOND</text>
  <text x="670" y="58" text-anchor="middle" font-size="8" font-weight="700" fill="#64748B" letter-spacing="1">4. NOTIFY</text>
  <text x="840" y="58" text-anchor="middle" font-size="8" font-weight="700" fill="#64748B" letter-spacing="1">5. PIR</text>

  <rect x="20" y="74" width="160" height="100" fill="#FFFFFF" stroke="#CBD5E1" stroke-width="1.5" rx="8"/>
  <text x="100" y="100" text-anchor="middle" font-size="14">🔍</text>
  <text x="100" y="122" text-anchor="middle" font-size="10" font-weight="700" fill="#1E40AF">Security event</text>
  <text x="100" y="140" text-anchor="middle" font-size="8" fill="#64748B">24/7 monitoring</text>
  <text x="100" y="154" text-anchor="middle" font-size="8" fill="#64748B">SIEM correlation</text>
  <text x="100" y="168" text-anchor="middle" font-size="8" fill="#64748B">Customer report</text>

  <line x1="180" y1="124" x2="208" y2="124" stroke="#94A3B8" stroke-width="2"/>
  <polygon points="206,119 216,124 206,129" fill="#94A3B8"/>

  <rect x="218" y="74" width="144" height="100" fill="#FFFFFF" stroke="#CBD5E1" stroke-width="1.5" rx="8"/>
  <text x="290" y="100" text-anchor="middle" font-size="14">⚖️</text>
  <text x="290" y="122" text-anchor="middle" font-size="10" font-weight="700" fill="#64748B">Triage</text>
  <text x="290" y="140" text-anchor="middle" font-size="8" fill="#B45309">Severity classified</text>
  <text x="290" y="154" text-anchor="middle" font-size="8" fill="#B45309">in &lt; 1 hour</text>
  <text x="290" y="168" text-anchor="middle" font-size="8" fill="#B45309">Response team paged</text>

  <line x1="362" y1="124" x2="390" y2="124" stroke="#94A3B8" stroke-width="2"/>
  <polygon points="388,119 398,124 388,129" fill="#94A3B8"/>

  <rect x="400" y="74" width="160" height="100" fill="#FFFFFF" stroke="#CBD5E1" stroke-width="1.5" rx="8"/>
  <text x="480" y="100" text-anchor="middle" font-size="14">🚨</text>
  <text x="480" y="122" text-anchor="middle" font-size="10" font-weight="700" fill="#64748B">Response</text>
  <text x="480" y="140" text-anchor="middle" font-size="8" fill="#64748B">CRITICAL: assembled</text>
  <text x="480" y="154" text-anchor="middle" font-size="8" fill="#64748B">HIGH: 4-hour response</text>
  <text x="480" y="168" text-anchor="middle" font-size="8" fill="#64748B">MEDIUM: 24-hour response</text>

  <line x1="560" y1="124" x2="588" y2="124" stroke="#94A3B8" stroke-width="2"/>
  <polygon points="586,119 596,124 586,129" fill="#94A3B8"/>

  <rect x="598" y="74" width="160" height="100" fill="#FFFFFF" stroke="#CBD5E1" stroke-width="1.5" rx="8"/>
  <text x="678" y="100" text-anchor="middle" font-size="14">📢</text>
  <text x="678" y="122" text-anchor="middle" font-size="10" font-weight="700" fill="#64748B">Customer notify</text>
  <text x="678" y="140" text-anchor="middle" font-size="8" fill="#B45309">Within 72 hours</text>
  <text x="678" y="154" text-anchor="middle" font-size="8" fill="#B45309">if data affected</text>
  <text x="678" y="168" text-anchor="middle" font-size="8" fill="#B45309">GDPR Article 33</text>

  <line x1="758" y1="124" x2="786" y2="124" stroke="#94A3B8" stroke-width="2"/>
  <polygon points="784,119 794,124 784,129" fill="#94A3B8"/>

  <rect x="796" y="74" width="104" height="100" fill="#FFFFFF" stroke="#CBD5E1" stroke-width="1.5" rx="8"/>
  <text x="848" y="100" text-anchor="middle" font-size="14">📋</text>
  <text x="848" y="122" text-anchor="middle" font-size="10" font-weight="700" fill="#64748B">PIR shared</text>
  <text x="848" y="140" text-anchor="middle" font-size="8" fill="#64748B">Root cause</text>
  <text x="848" y="154" text-anchor="middle" font-size="8" fill="#64748B">Remediation</text>
  <text x="848" y="168" text-anchor="middle" font-size="8" fill="#64748B">Affected customers</text>

  <line x1="40" y1="200" x2="880" y2="200" stroke="#94A3B8" stroke-width="1"/>
  <text x="460" y="220" text-anchor="middle" font-size="9" font-weight="700" fill="#1E40AF" letter-spacing="1">REPORT A SECURITY ISSUE</text>
  <text x="460" y="238" text-anchor="middle" font-size="9" fill="#64748B">security@onam.io · responsible disclosure policy + bug bounty program · GPG public key on the website</text>
  <text x="460" y="254" text-anchor="middle" font-size="9" fill="#64748B">Customer-impacting incidents reported within 72 hours of confirmation — GDPR Article 33 compliant</text>
  <text x="460" y="270" text-anchor="middle" font-size="9" fill="#64748B">Post-incident reviews shared with affected customers including root cause analysis and prevention measures</text>
</svg>
